<svg width="163" height="46" viewBox="0 0 163 46" fill="none" xmlns="http://www.w3.org/2000/svg">
<path id="Vector" d="M0 46V0H163V46H0ZM28.3332 9.43522L22.898 30.2721L17.4628 9.43522H12.4196L20.5686 36.9543H25.2274L33.3727 9.43522H28.3332ZM56.6627 9.43522H50.0591L41.91 36.9543H47.3452L49.0139 30.2721H57.316L58.9846 36.9543H64.4198L56.6627 9.43522ZM94.6942 32.2386H83.051V9.43522H78.0078V36.9543H94.6942V32.2386ZM117.592 9.43522L112.157 30.2721L106.726 9.43522H101.679L109.831 36.9543H114.486L122.635 9.43522H117.592ZM145.533 24.7698H138.161V20.4436H144.757V16.904H138.161V12.9711H145.533V9.43522H134.279V28.3057H145.533V24.7698ZM53.1686 13.7614L56.2334 25.9459H50.1039L53.1686 13.7614Z" fill="#8F959A"/>
</svg>
