<svg width="191" height="46" viewBox="0 0 191 46" fill="none" xmlns="http://www.w3.org/2000/svg">
<path id="Vector" d="M191 9.65098H190.097V7.39608L189.195 8.88431H188.743L188.292 7.39608V9.65098H187.39V5.81765H188.292L189.195 7.89216L190.097 5.81765H191V9.65098ZM186.938 6.49412H186.036V9.65098H185.133V6.49412H184.23V5.81765H186.938V6.49412ZM181.974 20.7H179.266V12.0412L176.107 17.6784H174.302L171.594 12.0412V20.7H168.435V5.81765H171.594L175.204 13.8451L179.266 5.81765H181.974V20.7ZM164.373 20.7H161.214L160.311 18.0843H155.347L154.445 20.7H151.285L156.701 5.81765H158.958L164.373 20.7ZM159.86 15.6039L158.055 10.1922L156.25 15.6039H159.86ZM146.772 20.7H136.844V5.81765H146.772V8.38824H140.003V11.9059H145.87V14.4765H140.003V18.1294H146.772V20.7ZM132.331 8.38824H128.72V20.7H125.561V8.38824H121.5V5.81765H132.331V8.38824ZM117.889 16.3255C117.889 19.3922 115.181 20.7902 112.473 20.8353C109.766 20.8353 107.96 20.2039 107.058 18.851L108.863 17.002C109.766 17.8137 110.668 18.2647 112.473 18.2647C114.279 18.2647 115.181 17.6333 115.181 16.4157C115.181 15.2882 114.279 14.7922 113.376 14.6118L111.571 14.3863C108.863 14.0255 107.509 12.6274 107.509 10.1922C107.509 8.83922 107.96 7.75686 108.863 6.9C109.766 6.08823 111.12 5.68235 112.473 5.68235C114.73 5.68235 116.084 6.26863 117.438 7.39608L115.633 9.2451C114.73 8.56863 113.827 8.20784 112.473 8.20784C111.12 8.29804 110.217 8.79412 110.217 10.102C110.217 11.1392 111.12 11.6353 112.022 11.7255L113.827 11.9961C116.084 12.2667 117.889 13.8 117.889 16.3255ZM94.8727 13.6196C94.8727 17.6784 91.2623 20.9706 87.2006 20.9706C83.1388 20.9706 79.9797 17.6784 79.9797 13.6196C79.9797 9.60588 83.1388 6.31373 87.2006 6.31373C91.2623 6.31373 94.8727 9.60588 94.8727 13.6196ZM87.2006 0C79.9797 0 73.6615 6.04314 73.6615 13.5745L65.0868 25.7961C64.6355 25.7505 64.6355 25.7059 64.1842 25.7059C62.379 25.7059 60.5737 26.2471 58.7685 27.149L20.2274 11.6353C19.1894 7.03529 15.0825 3.60784 10.2084 3.60784C4.61231 3.60784 0 8.20784 0 13.8451C0 19.4373 4.61231 24.0373 10.2084 24.0373C12.1495 24.0373 13.9091 23.5412 15.444 22.5941L54.256 38.1078C55.1586 42.8431 59.2203 46 64.1846 46C69.1489 46 73.662 41.9412 74.1133 36.9353L87.201 27.3745C94.8731 27.3745 101.191 21.2412 101.191 13.6647C101.191 6.13333 94.8727 0 87.2006 0ZM87.2006 4.5098C92.6162 4.5098 96.6779 8.61373 96.6779 13.6647C96.6779 18.7608 92.6162 22.8647 87.2006 22.8647C82.2362 22.8647 78.1745 18.7608 78.1745 13.6647C78.1745 8.61373 82.2362 4.5098 87.2006 4.5098ZM10.2084 6.31373C13.0968 6.31373 15.6241 7.89216 16.8882 10.2824L13.1419 8.79412C10.1182 7.71176 6.77856 9.2 5.56004 12.1765C4.38666 15.198 5.74056 18.5804 8.67402 19.8882L11.8331 21.151C11.3363 21.2863 10.7951 21.3314 10.208 21.3314C6.05647 21.3314 2.71639 17.9941 2.71639 13.8451C2.71684 9.65098 6.05647 6.31373 10.2084 6.31373ZM64.1842 28.4118C68.2459 28.4118 71.405 31.7941 71.405 35.9431C71.405 40.1373 68.2459 43.2941 64.1842 43.2941C61.025 43.2941 58.7685 41.9412 57.4146 39.4608C58.7685 40.1373 59.6711 40.5882 61.025 41.0392C64.1842 42.3922 67.3433 40.5882 68.6972 37.702C69.5998 34.9063 68.6972 31.073 65.5381 29.8554L62.379 28.5926C62.8303 28.502 63.7329 28.4118 64.1842 28.4118Z" fill="#8F959A"/>
</svg>
