<svg width="52" height="46" viewBox="0 0 52 46" fill="none" xmlns="http://www.w3.org/2000/svg">
<path d="M52 20.7C52 18.147 49.8727 16.1 47.2727 16.1H32.3345L34.6036 5.589C34.6509 5.359 34.6745 5.106 34.6745 4.853C34.6745 3.91 34.2727 3.036 33.6345 2.415L31.1291 0L15.5764 15.134C14.7018 15.985 14.1818 17.135 14.1818 18.4V41.4C14.1818 42.62 14.6799 43.79 15.5664 44.6527C16.4529 45.5154 17.6553 46 18.9091 46H40.1818C42.1436 46 43.8218 44.85 44.5309 43.194L51.6691 26.979C51.8818 26.45 52 25.898 52 25.3V20.7ZM0 46H9.45455V18.4H0V46Z" fill="#51D3FF"/>
</svg>
