<svg width="49" height="44" viewBox="0 0 49 44" fill="none" xmlns="http://www.w3.org/2000/svg">
<path d="M42.6633 13.6295C42.6633 17.3619 39.6677 20.3975 36.0923 20.3975C32.4203 20.3975 29.5213 17.3619 29.5213 13.6295C29.5213 9.89715 32.4203 6.81174 36.0923 6.81174C39.6677 6.81174 42.6633 9.84739 42.6633 13.6295ZM21.8873 34.2321C21.8873 30.3505 18.8917 27.2651 15.1713 27.2651C14.6882 27.2651 14.205 27.3148 13.7218 27.4641L16.5242 28.6087C19.2299 29.7533 20.5828 32.9382 19.5198 35.7748C18.4569 38.6114 15.268 40.0048 12.5139 38.8105C11.4027 38.3626 10.2914 37.9147 9.18011 37.4668C10.3397 39.6565 12.5623 41.1494 15.1713 41.1494C18.8917 41.1494 21.8873 38.064 21.8873 34.2321ZM44.2578 13.6295C44.2578 8.95162 40.5857 5.1695 36.044 5.1695C31.5023 5.1695 27.7819 8.95162 27.7819 13.6295C27.7819 18.3572 31.5023 22.0895 36.044 22.0895C40.5857 22.0895 44.2578 18.3572 44.2578 13.6295ZM48.3164 13.6295C48.3164 20.6463 42.8083 26.2698 36.044 26.2698L24.2548 35.1279C23.82 39.9053 19.9063 43.6874 15.1713 43.6874C10.7745 43.6874 7.10251 40.4527 6.18449 36.2227L0 33.6847V21.7412L10.4847 26.1205C11.8858 25.2247 13.4803 24.7768 15.1713 24.7768C15.4612 24.7768 15.7995 24.8266 16.0893 24.8266L23.7717 13.53C23.82 6.61268 29.328 0.989258 36.044 0.989258C42.8083 0.989258 48.3164 6.66244 48.3164 13.6295Z" fill="white"/>
</svg>
