<svg width="60" height="54" viewBox="0 0 60 54" fill="none" xmlns="http://www.w3.org/2000/svg">
<path id="Vector" d="M52.98 15.986C52.98 20.7063 49.26 24.5455 44.82 24.5455C40.26 24.5455 36.66 20.7063 36.66 15.986C36.66 11.2657 40.26 7.36364 44.82 7.36364C49.26 7.36364 52.98 11.2028 52.98 15.986ZM27.18 42.042C27.18 37.1329 23.46 33.2308 18.84 33.2308C18.24 33.2308 17.64 33.2937 17.04 33.4825L20.52 34.9301C23.88 36.3776 25.56 40.4056 24.24 43.993C22.92 47.5804 18.96 49.3427 15.54 47.8322C14.16 47.2657 12.78 46.6993 11.4 46.1329C12.84 48.9021 15.6 50.7902 18.84 50.7902C23.46 50.7902 27.18 46.8881 27.18 42.042ZM54.96 15.986C54.96 10.0699 50.4 5.28671 44.76 5.28671C39.12 5.28671 34.5 10.0699 34.5 15.986C34.5 21.965 39.12 26.6853 44.76 26.6853C50.4 26.6853 54.96 21.965 54.96 15.986ZM60 15.986C60 24.8601 53.16 31.972 44.76 31.972L30.12 43.1748C29.58 49.2168 24.72 54 18.84 54C13.38 54 8.82 49.9091 7.68 44.5594L0 41.3497V26.2448L13.02 31.7832C14.76 30.6503 16.74 30.0839 18.84 30.0839C19.2 30.0839 19.62 30.1469 19.98 30.1469L29.52 15.8601C29.58 7.11189 36.42 0 44.76 0C53.16 0 60 7.17482 60 15.986Z" fill="#51D3FF"/>
</svg>
