<svg width="40" height="40" viewBox="0 0 40 40" fill="none" xmlns="http://www.w3.org/2000/svg">
<path d="M19.9655 0C9.44062 0 0.81875 8.09438 0 18.3802L10.7381 22.8086C11.6758 22.1671 12.7893 21.824 13.9297 21.8254C14.0363 21.8254 14.1416 21.8284 14.2453 21.8341L19.0212 14.9292V14.8325C19.0212 10.6777 22.4103 7.29655 26.5764 7.29655C30.7423 7.29655 34.1314 10.6777 34.1314 14.8325C34.1314 18.9872 30.7423 22.3697 26.5764 22.3697C26.5186 22.3697 26.4623 22.3683 26.4048 22.3669L19.5934 27.2127C19.5978 27.3025 19.6006 27.3923 19.6006 27.4806C19.6006 30.6009 17.0564 33.1386 13.9297 33.1386C11.185 33.1386 8.88859 31.1837 8.36969 28.5963L0.689062 25.4288C3.06766 33.8167 10.7942 39.9663 19.9655 39.9663C31.0308 39.9663 40 31.0185 40 19.9831C40 8.94657 31.0308 0 19.9655 0ZM12.555 30.321L10.0942 29.3067C10.5297 30.2128 11.285 30.9707 12.2869 31.387C14.452 32.2873 16.9487 31.2629 17.8512 29.1014C18.2882 28.0621 18.2908 26.894 17.8584 25.8528C17.4259 24.8042 16.6086 23.9863 15.5606 23.5503C14.5184 23.1187 13.4027 23.1343 12.4223 23.5034L14.9653 24.552C16.5625 25.2161 17.3178 27.0454 16.6519 28.6384C15.9873 30.2313 14.1522 30.9851 12.555 30.321ZM31.6108 14.8325C31.6108 12.0642 29.3519 9.81018 26.5769 9.81018C23.8005 9.81018 21.5416 12.0642 21.5416 14.8325C21.5416 17.6009 23.8005 19.8536 26.5769 19.8536C29.3519 19.8536 31.6108 17.6009 31.6108 14.8325ZM22.803 14.824C22.803 12.7409 24.4967 11.0526 26.5842 11.0526C28.673 11.0526 30.3667 12.7409 30.3667 14.824C30.3667 16.907 28.673 18.5955 26.5841 18.5955C24.4967 18.5955 22.8028 16.907 22.8028 14.8241L22.803 14.824Z" fill="#192C3E"/>
</svg>
